<?xml version="1.0" encoding="UTF-8"?>
<svg xmlns="http://www.w3.org/2000/svg" xmlns:xlink="http://www.w3.org/1999/xlink" width="60px" height="60px" viewBox="0 0 60 60" version="1.1">
<defs>
<linearGradient id="linear0" gradientUnits="userSpaceOnUse" x1="0.621023" y1="0" x2="1.081972" y2="0.378636" gradientTransform="matrix(44.320313,0,0,17.883984,0.195313,21.05625)">
<stop offset="0" style="stop-color:rgb(25.882353%,52.156863%,92.156863%);stop-opacity:1;"/>
<stop offset="1" style="stop-color:rgb(18.039216%,78.039216%,100%);stop-opacity:1;"/>
</linearGradient>
<linearGradient id="linear1" gradientUnits="userSpaceOnUse" x1="0.696441" y1="0" x2="0.540429" y2="1.084567" gradientTransform="matrix(44.320313,0,0,17.883984,0.195313,21.05625)">
<stop offset="0" style="stop-color:rgb(16.078431%,80.392157%,100%);stop-opacity:1;"/>
<stop offset="0.378601" style="stop-color:rgb(7.843137%,55.686275%,100%);stop-opacity:1;"/>
<stop offset="1" style="stop-color:rgb(3.921569%,37.647059%,100%);stop-opacity:1;"/>
</linearGradient>
<linearGradient id="linear2" gradientUnits="userSpaceOnUse" x1="0.696908" y1="-0.129744" x2="0.167229" y2="1.173912" gradientTransform="matrix(14.761719,0,0,6.970313,45.082031,26.540625)">
<stop offset="0" style="stop-color:rgb(98.039216%,50.588235%,43.137255%);stop-opacity:1;"/>
<stop offset="0.414726" style="stop-color:rgb(96.862745%,29.019608%,36.078431%);stop-opacity:1;"/>
<stop offset="1" style="stop-color:rgb(96.078431%,11.372549%,17.254902%);stop-opacity:1;"/>
</linearGradient>
<linearGradient id="linear3" gradientUnits="userSpaceOnUse" x1="0.68128" y1="-0.356906" x2="0.304401" y2="1.149427" gradientTransform="matrix(14.160156,0,0,4.244531,23.074219,27.917578)">
<stop offset="0" style="stop-color:rgb(98.039216%,55.686275%,49.019608%);stop-opacity:1;"/>
<stop offset="0.512635" style="stop-color:rgb(96.862745%,29.019608%,36.078431%);stop-opacity:1;"/>
<stop offset="1" style="stop-color:rgb(96.078431%,11.372549%,17.254902%);stop-opacity:1;"/>
</linearGradient>
</defs>
<g id="surface1">
<path style=" stroke:none;fill-rule:nonzero;fill:url(#linear0);" d="M 27.476562 21.375 L 1.253906 29.234375 C -0.15625 29.660156 -0.15625 30.339844 1.253906 30.765625 L 27.476562 38.625 C 28.886719 39.046875 31.164062 39.046875 32.574219 38.625 L 43.566406 35.328125 C 44.832031 34.949219 44.832031 34.335938 43.566406 33.957031 C 42.304688 33.578125 40.257812 33.578125 38.996094 33.957031 L 30.660156 36.457031 C 30.308594 36.5625 29.777344 36.5625 29.425781 36.457031 L 8.484375 30.179688 C 8.136719 30.074219 8.136719 29.914062 8.484375 29.808594 L 29.425781 23.53125 C 29.777344 23.425781 30.308594 23.425781 30.660156 23.53125 L 38.996094 26.03125 C 40.257812 26.410156 42.304688 26.410156 43.566406 26.03125 C 44.832031 25.652344 44.832031 25.039062 43.566406 24.660156 L 32.574219 21.363281 C 31.160156 20.953125 28.878906 20.957031 27.476562 21.375 Z M 27.476562 21.375 "/>
<path style=" stroke:none;fill-rule:nonzero;fill:url(#linear1);" d="M 27.476562 21.375 L 1.253906 29.234375 C -0.15625 29.660156 -0.15625 30.339844 1.253906 30.765625 L 27.476562 38.625 C 28.886719 39.046875 31.164062 39.046875 32.574219 38.625 L 43.566406 35.328125 C 44.832031 34.949219 44.832031 34.335938 43.566406 33.957031 C 42.304688 33.578125 40.257812 33.578125 38.996094 33.957031 L 30.660156 36.457031 C 30.308594 36.5625 29.777344 36.5625 29.425781 36.457031 L 8.484375 30.179688 C 8.136719 30.074219 8.136719 29.914062 8.484375 29.808594 L 29.425781 23.53125 C 30.300781 23.304688 31.726562 22.847656 33.820312 22.742188 C 35.375 22.660156 37.074219 22.835938 38.921875 23.269531 C 37.6875 22.898438 35.570312 22.261719 32.574219 21.363281 C 31.160156 20.953125 28.878906 20.957031 27.476562 21.375 Z M 27.476562 21.375 "/>
<path style=" stroke:none;fill-rule:nonzero;fill:url(#linear2);" d="M 46.105469 33.226562 C 47.367188 33.605469 49.414062 33.605469 50.679688 33.226562 L 58.789062 30.796875 C 60.199219 30.375 60.199219 29.691406 58.789062 29.269531 L 50.605469 26.824219 C 49.339844 26.445312 47.292969 26.445312 46.03125 26.824219 C 44.769531 27.203125 44.769531 27.816406 46.03125 28.195312 L 51.554688 29.851562 C 51.90625 29.957031 51.90625 30.117188 51.554688 30.222656 L 46.105469 31.855469 C 44.84375 32.234375 44.84375 32.847656 46.105469 33.226562 Z M 46.105469 33.226562 "/>
<path style=" stroke:none;fill-rule:evenodd;fill:url(#linear3);" d="M 37.234375 30.039062 C 37.234375 28.867188 34.066406 27.917969 30.15625 27.917969 C 26.246094 27.917969 23.074219 28.867188 23.074219 30.039062 C 23.074219 31.210938 26.246094 32.160156 30.15625 32.160156 C 34.066406 32.160156 37.234375 31.210938 37.234375 30.039062 Z M 37.234375 30.039062 "/>
</g>
</svg>
