<?xml version="1.0" encoding="UTF-8"?>
<svg xmlns="http://www.w3.org/2000/svg" xmlns:xlink="http://www.w3.org/1999/xlink" width="60px" height="60px" viewBox="0 0 60 60" version="1.1">
<defs>
<linearGradient id="linear0" gradientUnits="userSpaceOnUse" x1="0.621023" y1="0" x2="1.081972" y2="0.378636" gradientTransform="matrix(44.320313,0,0,59.613281,0.195313,0.1875)">
<stop offset="0" style="stop-color:rgb(25.882353%,52.156863%,92.156863%);stop-opacity:1;"/>
<stop offset="1" style="stop-color:rgb(18.039216%,78.039216%,100%);stop-opacity:1;"/>
</linearGradient>
<linearGradient id="linear1" gradientUnits="userSpaceOnUse" x1="0.696441" y1="0" x2="0.540429" y2="1.084567" gradientTransform="matrix(44.320313,0,0,59.613281,0.195313,0.1875)">
<stop offset="0" style="stop-color:rgb(16.078431%,80.392157%,100%);stop-opacity:1;"/>
<stop offset="0.378601" style="stop-color:rgb(7.843137%,55.686275%,100%);stop-opacity:1;"/>
<stop offset="1" style="stop-color:rgb(3.921569%,37.647059%,100%);stop-opacity:1;"/>
</linearGradient>
<linearGradient id="linear2" gradientUnits="userSpaceOnUse" x1="0.696908" y1="-0.129744" x2="0.167229" y2="1.173912" gradientTransform="matrix(14.761719,0,0,23.234375,45.082031,18.46875)">
<stop offset="0" style="stop-color:rgb(98.039216%,50.588235%,43.137255%);stop-opacity:1;"/>
<stop offset="0.414726" style="stop-color:rgb(96.862745%,29.019608%,36.078431%);stop-opacity:1;"/>
<stop offset="1" style="stop-color:rgb(96.078431%,11.372549%,17.254902%);stop-opacity:1;"/>
</linearGradient>
<linearGradient id="linear3" gradientUnits="userSpaceOnUse" x1="0.68128" y1="-0.356906" x2="0.304401" y2="1.149427" gradientTransform="matrix(14.160156,0,0,14.148437,23.074219,23.058594)">
<stop offset="0" style="stop-color:rgb(98.039216%,55.686275%,49.019608%);stop-opacity:1;"/>
<stop offset="0.512635" style="stop-color:rgb(96.862745%,29.019608%,36.078431%);stop-opacity:1;"/>
<stop offset="1" style="stop-color:rgb(96.078431%,11.372549%,17.254902%);stop-opacity:1;"/>
</linearGradient>
</defs>
<g id="surface1">
<path style=" stroke:none;fill-rule:nonzero;fill:url(#linear0);" d="M 27.476562 1.253906 L 1.253906 27.453125 C -0.15625 28.863281 -0.15625 31.136719 1.253906 32.546875 L 27.476562 58.746094 C 28.886719 60.15625 31.164062 60.15625 32.574219 58.746094 L 43.566406 47.761719 C 44.832031 46.5 44.832031 44.453125 43.566406 43.191406 C 42.304688 41.929688 40.257812 41.929688 38.996094 43.191406 L 30.660156 51.519531 C 30.308594 51.871094 29.777344 51.871094 29.425781 51.519531 L 8.484375 30.597656 C 8.136719 30.246094 8.136719 29.714844 8.484375 29.363281 L 29.425781 8.441406 C 29.777344 8.089844 30.308594 8.089844 30.660156 8.441406 L 38.996094 16.769531 C 40.257812 18.03125 42.304688 18.03125 43.566406 16.769531 C 44.832031 15.507812 44.832031 13.460938 43.566406 12.203125 L 32.574219 1.214844 C 31.160156 -0.160156 28.878906 -0.148438 27.476562 1.253906 Z M 27.476562 1.253906 "/>
<path style=" stroke:none;fill-rule:nonzero;fill:url(#linear1);" d="M 27.476562 1.253906 L 1.253906 27.453125 C -0.15625 28.863281 -0.15625 31.136719 1.253906 32.546875 L 27.476562 58.746094 C 28.886719 60.15625 31.164062 60.15625 32.574219 58.746094 L 43.566406 47.761719 C 44.832031 46.5 44.832031 44.453125 43.566406 43.191406 C 42.304688 41.929688 40.257812 41.929688 38.996094 43.191406 L 30.660156 51.519531 C 30.308594 51.871094 29.777344 51.871094 29.425781 51.519531 L 8.484375 30.597656 C 8.136719 30.246094 8.136719 29.714844 8.484375 29.363281 L 29.425781 8.441406 C 30.300781 7.6875 31.726562 6.164062 33.820312 5.804688 C 35.375 5.539062 37.074219 6.125 38.921875 7.558594 C 37.6875 6.324219 35.570312 4.210938 32.574219 1.214844 C 31.160156 -0.160156 28.878906 -0.148438 27.476562 1.253906 Z M 27.476562 1.253906 "/>
<path style=" stroke:none;fill-rule:nonzero;fill:url(#linear2);" d="M 46.105469 40.757812 C 47.367188 42.019531 49.414062 42.019531 50.679688 40.757812 L 58.789062 32.652344 C 60.199219 31.246094 60.199219 28.96875 58.789062 27.5625 L 50.605469 19.414062 C 49.339844 18.15625 47.292969 18.15625 46.03125 19.417969 C 44.769531 20.679688 44.769531 22.726562 46.03125 23.988281 L 51.554688 29.507812 C 51.90625 29.859375 51.90625 30.390625 51.554688 30.742188 L 46.105469 36.1875 C 44.84375 37.449219 44.84375 39.496094 46.105469 40.757812 Z M 46.105469 40.757812 "/>
<path style=" stroke:none;fill-rule:evenodd;fill:url(#linear3);" d="M 37.234375 30.132812 C 37.234375 26.222656 34.066406 23.058594 30.15625 23.058594 C 26.246094 23.058594 23.074219 26.222656 23.074219 30.132812 C 23.074219 34.039062 26.246094 37.207031 30.15625 37.207031 C 34.066406 37.207031 37.234375 34.039062 37.234375 30.132812 Z M 37.234375 30.132812 "/>
</g>
</svg>
